# xmcd
#
# Track frame offsets: 
#        150
#        15545
#        30173
#        45881
#        64493
#        80848
#        99828
#        114839
#        136900
#        156399
#        170354
#        193553
#        215835
#        235858
#
# Disc length: 3480 seconds
#
# Revision: 0
# Processed by: cddbd v1.5.2PL0 Copyright (c) Steve Scherf et al.
# Submitted via: ExactAudioCopyFreeDBPlugin 1.0
#
DISCID=ae0d960e
DTITLE=The Forest and The Trees - The Forest and The Trees
DYEAR=2010
DGENRE=Pop
TTITLE0=Mother
TTITLE1=To The Forest! (I Need Some Peace)
TTITLE2=The Barber
TTITLE3=Run
TTITLE4=Bohemian Boy
TTITLE5=In The Summer
TTITLE6=Circus Lonely Hearts
TTITLE7=Hold Me Close, Hold Me In Your Arms
TTITLE8=Dreams
TTITLE9=Escape
TTITLE10=Seventeen
TTITLE11=By The Trees
TTITLE12=Older
TTITLE13=Tic Toc
EXTD=
EXTT0=
EXTT1=
EXTT2=
EXTT3=
EXTT4=
EXTT5=
EXTT6=
EXTT7=
EXTT8=
EXTT9=
EXTT10=
EXTT11=
EXTT12=
EXTT13=
PLAYORDER=
